<?xml version="1.0" encoding="iso-8859-1"?>
<!-- Uploaded to: SVG Repo, www.svgrepo.com, Generator: SVG Repo Mixer Tools -->
<!DOCTYPE svg PUBLIC "-//W3C//DTD SVG 1.1//EN" "http://www.w3.org/Graphics/SVG/1.1/DTD/svg11.dtd">
<svg fill="#000000" height="800px" width="800px" version="1.1" id="Capa_1" xmlns="http://www.w3.org/2000/svg" xmlns:xlink="http://www.w3.org/1999/xlink" 
	 viewBox="0 0 409.06 409.06" xml:space="preserve">
<g>
	<path d="M137.277,101.229c27.902,0,50.603-22.705,50.603-50.614S165.18,0,137.277,0c-27.909,0-50.614,22.705-50.614,50.614
		S109.368,101.229,137.277,101.229z"/>
	<path d="M285.167,352.047h97.35c6.184,0,11.214-5.03,11.214-11.214v-70.887c0-5.537-4.038-10.139-9.322-11.041v-1.49
		c0-27.882-22.684-50.565-50.565-50.565c-27.882,0-50.566,22.684-50.566,50.565v1.489c-5.284,0.903-9.323,5.504-9.323,11.042v70.887
		C273.953,347.017,278.983,352.047,285.167,352.047z M338.934,331.381l0.007,4.468c0.001,2.274-1.876,4.127-4.185,4.13l-2.385,0.002
		c-2.305,0-4.183-1.848-4.187-4.118l-0.005-4.11c-1.986-0.348-7.023-1.338-9.98-2.872c-1.708-0.889-2.461-2.759-1.832-4.549
		l1.226-3.332c0.591-1.602,2.075-2.636,3.782-2.636c0.618,0,1.21,0.133,1.77,0.394c0.064,0.03,5.356,2.478,9.074,2.478
		c3.915-0.006,6.643-1.961,6.64-4.753c-0.002-1.94-0.879-4.077-7.22-6.556c-7.405-2.802-14.992-6.899-15.006-16.001
		c-0.008-7.025,4.695-12.758,12.042-14.759l-0.011-4.235c0-2.274,1.877-4.127,4.185-4.134l2.295-0.002
		c2.311,0,4.19,1.849,4.194,4.12l0.021,3.842c1.732,0.327,5.655,1.136,8.021,2.163c1.505,0.647,2.694,2.459,1.923,4.538
		l-1.286,3.297c-0.604,1.546-2.064,2.546-3.717,2.55c-0.678,0-1.35-0.17-1.944-0.49c-0.102-0.05-3.346-1.656-7.506-1.656
		c-4.159,0.004-5.63,1.978-5.628,3.822c0.003,2.028,1.176,3.402,8.12,6.178c9.8,3.856,14.178,9.027,14.188,16.767
		C351.538,323.35,346.622,329.344,338.934,331.381z M299.345,257.415c0-19.023,15.476-34.497,34.498-34.497
		c19.022,0,34.497,15.475,34.497,34.497v1.317h-68.995V257.415z"/>
	<path d="M399.612,360.176H264.537c-2.101,0-3.876-1.775-3.876-3.876V230.962c0-10.072-8.195-18.269-18.268-18.269h-13.989
		c-0.925-2.837-2.438-5.529-4.59-7.862l-22.705-24.613c-1.816-1.969-4.793-7.6-5.398-10.211L185.128,124.3
		c-2.263-9.769-10.838-16.591-20.854-16.591c-0.211,0-62.496-0.001-62.496-0.001c-7.792,0-12.229,3.682-15.637,7.999l-38.274,47.616
		c-4.177,5.196-10.798,13.818-14.76,19.218l-17.385,23.703c-3.383,4.613-4.767,10.268-3.897,15.923
		c0.869,5.655,3.889,10.633,8.502,14.017c3.699,2.713,8.074,4.147,12.651,4.147c6.806,0,13.269-3.272,17.287-8.753l10.751-14.657
		l-21.01,76.137l-0.027,0.108c-1.027,4.593-3.84,12.621-5.902,16.844L4.539,370.508c-5.464,11.189-0.805,24.737,10.385,30.202
		c3.03,1.479,6.267,2.25,9.616,2.291l0.281,0.001c8.706,0,16.486-4.857,20.304-12.678l29.539-60.498
		c3.569-7.312,7.598-18.801,9.382-26.754l14.336-51.62h14.886l21.017,55.447c1.191,3.143,2.355,10.283,2.225,13.641l-2.54,65.055
		c-0.235,6.027,1.891,11.786,5.986,16.215c4.096,4.429,9.671,6.998,15.705,7.232c0.298,0.011,0.593,0.018,0.888,0.018
		c12.172,0,22.077-9.533,22.552-21.703l2.54-65.055c0.367-9.397-1.786-22.606-5.124-31.414l-25.454-66.643l7.838-31.244
		c2.985,6.117,6.815,12.027,10.724,16.262l22.704,24.612c4.042,4.384,9.782,6.898,15.748,6.898c5.396,0,10.551-2.017,14.518-5.677
		c2.485-2.293,4.281-5.05,5.423-8.011h14.376c2.1,0,3.876,1.775,3.876,3.876V356.3c0,10.073,8.195,18.268,18.269,18.268h10.716
		c-1.806,2.898-2.866,6.307-2.866,9.966c0,10.434,8.489,18.923,18.924,18.923s18.924-8.489,18.924-18.923
		c0-3.659-1.061-7.067-2.866-9.966h43.733c-1.806,2.898-2.866,6.307-2.866,9.966c0,10.434,8.489,18.923,18.924,18.923
		c10.435,0,18.924-8.489,18.924-18.923c0-3.659-1.06-7.067-2.866-9.966h16.396c3.975,0,7.196-3.222,7.196-7.196
		C406.809,363.397,403.587,360.176,399.612,360.176z"/>
</g>
</svg>