<?xml version="1.0" encoding="iso-8859-1"?>
<!-- Uploaded to: SVG Repo, www.svgrepo.com, Generator: SVG Repo Mixer Tools -->
<!DOCTYPE svg PUBLIC "-//W3C//DTD SVG 1.1//EN" "http://www.w3.org/Graphics/SVG/1.1/DTD/svg11.dtd">
<svg fill="#000000" version="1.1" id="Capa_1" xmlns="http://www.w3.org/2000/svg" xmlns:xlink="http://www.w3.org/1999/xlink" 
	 width="800px" height="800px" viewBox="0 0 485.643 485.643"
	 xml:space="preserve">
<g>
	<g id="Layer_2_5_">
		<g>
			<path d="M168.728,317.485c-5.412,1.842-10.26,3.121-19.031,5.646c-4.187,1.205-5.265,6.09-3.806,8.373
				c25.04,39.192,50.922,74.709,70.243,97.785c1.25,1.601,2.646,1.028,1.888-0.754c-14.864-31.413-33.926-88.158-39.271-106.229
				C177.42,317.803,174.692,315.456,168.728,317.485z"/>
			<path d="M316.918,317.485c-5.963-2.029-8.69,0.317-10.022,4.821c-5.346,18.07-24.406,74.815-39.271,106.229
				c-0.758,1.782,0.639,2.354,1.889,0.754c19.32-23.076,45.203-58.593,70.242-97.785c1.459-2.283,0.382-7.168-3.806-8.373
				C327.177,320.606,322.33,319.327,316.918,317.485z"/>
			<path d="M372.172,334.043c-2.156-0.779-4.964-1.732-7.087-2.449c-1.18-0.406-2.442-0.638-3.762-0.638
				c-3.891,0-7.327,1.925-9.429,4.869c-0.011,0.015-0.029,0.026-0.039,0.041c-0.021,0.03-0.04,0.063-0.061,0.092
				c-0.066,0.097-0.131,0.196-0.195,0.298c-9.184,14.012-20.041,29.998-31.883,46.905c-58.028,82.873-71.27,83.395-76.895,83.396
				c-5.625-0.002-18.865-0.522-76.895-83.396c-11.841-16.907-22.699-32.896-31.882-46.905c-0.065-0.102-0.129-0.201-0.196-0.298
				c-0.02-0.028-0.04-0.062-0.06-0.092c-0.01-0.015-0.029-0.026-0.039-0.041c-2.102-2.944-5.538-4.869-9.429-4.869
				c-1.318,0-2.582,0.229-3.762,0.638c-2.122,0.717-4.93,1.67-7.086,2.449c-57.831,20.852-73.744,42.102-73.744,56.603
				c0,14.482,0,94.997,0,94.997h199.797h0.29h3.005h3.006h0.289h199.797c0,0,0-80.515,0-94.997
				C445.915,376.143,430.002,354.893,372.172,334.043z"/>
			<path d="M122.16,162.01c-0.615,2.72-0.994,5.891-0.994,9.587c3.747,49.304,23.359,28.057,27.406,49.65
				c7.955,42.501,28.338,64.19,55.824,72.817c13.776,4.326,26.69,6.406,39.01,6.113c12.317,0.293,25.231-1.787,39.009-6.113
				c27.486-8.627,47.869-30.316,55.824-72.817c4.047-21.594,23.659-0.347,27.406-49.65c0-3.696-0.379-6.867-0.994-9.587
				l20.804-49.915c9.034-21.689,3.069-46.717-14.768-62.013C335.255,19.703,291.253,0.236,243.485,0.003V0
				c-0.026,0-0.053,0.001-0.079,0.002C243.379,0.001,243.352,0,243.326,0v0.003c-47.769,0.233-91.771,19.7-127.202,50.079
				c-17.837,15.296-23.802,40.323-14.768,62.013L122.16,162.01z M217.386,56.743c0.105-0.146,0.206-0.301,0.329-0.424
				c3.236-3.238,15.852-1.759,16.075,1.836c0.175,2.824-1.877,4.06-2.718,4.552c-0.021,0.015-0.045,0.034-0.064,0.047
				c-0.562,0.353-0.707,0.854-0.264,1.329c1.511,1.626,5.147,5.287,7.815,5.957c2.325,0.497,2.482-0.763,2.482-2.547
				c0-1.786-0.02-9.32-0.02-9.32l-0.015-14.943c-3.758-1.314-6.472-4.781-6.472-8.879c0-4.931,3.384-9.455,8.868-9.416
				c0,0,0.001,0,0.002,0c5.485-0.039,8.866,4.485,8.866,9.416c0,4.098-2.713,7.564-6.473,8.879l-0.013,14.943
				c0,0-0.021,7.534-0.021,9.32c0,1.784,0.156,3.044,2.48,2.547c2.67-0.67,6.307-4.331,7.816-5.957
				c0.443-0.475,0.296-0.977-0.264-1.329c-0.021-0.013-0.045-0.032-0.065-0.047c-0.839-0.492-2.892-1.728-2.716-4.552
				c0.224-3.595,12.836-5.074,16.074-1.836c0.123,0.123,0.223,0.278,0.33,0.424l-0.011,0.005c2.894,3.597,1.164,15.054-2.335,15.272
				c-3.184,0.197-4.37-2.475-4.725-3.004c-0.314-0.475-0.92-0.16-1.211,0.098c-3.684,3.288-8.145,8.813-17.738,8.986
				c-0.001,0-0.001,0-0.001,0c-9.595-0.174-14.059-5.698-17.742-8.986c-0.288-0.258-0.894-0.572-1.211-0.098
				c-0.354,0.529-1.54,3.201-4.722,3.004c-3.499-0.219-5.229-11.676-2.336-15.272L217.386,56.743z"/>
		</g>
	</g>
</g>
</svg>