<?xml version="1.0" encoding="iso-8859-1"?>
<!-- Uploaded to: SVG Repo, www.svgrepo.com, Generator: SVG Repo Mixer Tools -->
<!DOCTYPE svg PUBLIC "-//W3C//DTD SVG 1.1//EN" "http://www.w3.org/Graphics/SVG/1.1/DTD/svg11.dtd">
<svg fill="#000000" version="1.1" id="Capa_1" xmlns="http://www.w3.org/2000/svg" xmlns:xlink="http://www.w3.org/1999/xlink" 
	 width="800px" height="800px" viewBox="0 0 470.348 470.348"
	 xml:space="preserve">
<g>
	<g>
		<g>
			<path d="M356.864,193.698c-0.251,0-0.507-0.021-0.762-0.066l-44.764-7.884c-4.202-0.738-11.518-0.474-15.658,0.572l-23.431,5.92
				c-2.342,0.598-4.718-0.829-5.31-3.167c-0.591-2.341,0.827-4.718,3.169-5.309l23.431-5.921c5.377-1.355,13.859-1.67,19.314-0.705
				l44.764,7.884c2.378,0.418,3.966,2.686,3.546,5.064C360.792,192.207,358.947,193.698,356.864,193.698z"/>
		</g>
		<g>
			<path d="M302.892,314.35c-3.541,0-7.085-0.373-9.845-1.117l-67.531-18.234c-6.655-1.797-11.87-8.605-11.87-15.502v-16.729
				c0-2.416,1.957-4.373,4.372-4.373c2.415,0,4.372,1.957,4.372,4.373v16.729c0,2.934,2.577,6.297,5.405,7.061l67.533,18.234
				c3.997,1.078,11.015,1.086,15.014,0.021l68.449-18.281c2.825-0.756,5.399-4.109,5.399-7.033V208.9c0-1.028-0.33-1.857-0.929-2.34
				c-0.602-0.479-1.482-0.623-2.484-0.4l-67.339,14.975c-5.359,1.193-12.844,1.591-17.044,0.923l-6.667-1.066
				c-2.385-0.381-4.008-2.623-3.627-5.006c0.382-2.381,2.627-4.004,5.007-3.626l6.671,1.066c3.106,0.499,9.542,0.11,13.763-0.825
				l67.339-14.975c3.592-0.799,7.182-0.028,9.852,2.116c2.67,2.142,4.202,5.48,4.202,9.157v70.598
				c0,6.898-5.222,13.699-11.887,15.48l-68.45,18.281C309.874,313.986,306.385,314.35,302.892,314.35z"/>
		</g>
		<path d="M280.943,232.56c-9.236-10.699-80.137-92.637-103.118-113.486c18.218-11.93,29.318-32.14,29.318-54.209
			C207.143,29.098,178.045,0,142.278,0S77.415,29.098,77.415,64.867c0,21.854,10.887,41.886,28.79,53.86
			c-14.877,11.25-23.885,28.993-23.885,47.85v277.328c0,14.582,11.862,26.443,26.443,26.443c14.582,0,26.444-11.861,26.444-26.443
			V291.566l13.601-0.004v152.34c0,14.582,11.862,26.443,26.443,26.443c14.582,0,26.444-11.861,26.444-26.432l0.521-226.077
			l46.606,46.606c4.411,4.412,10.206,6.619,16.001,6.619s11.592-2.207,16.003-6.619C289.605,255.658,289.645,241.393,280.943,232.56
			z M274.644,258.262c-2.623,2.623-6.111,4.068-9.82,4.068s-7.197-1.445-9.82-4.068c0,0-40.018-41.054-54.034-54.035
			c-3.496-3.237-7.472-0.86-7.472,3.07c0,6.22-0.544,236.604-0.544,236.604c0,9.762-7.94,17.701-17.701,17.701
			c-9.761,0-17.701-7.939-17.701-17.701V287.219c0-2.527-0.804-4.396-4.738-4.396c-4.98,0-17.863,0.002-22.838,0.002
			c-2.234,0-3.509,1.102-3.509,4.398v156.68c0,9.762-7.94,17.701-17.701,17.701c-9.761,0-17.701-7.939-17.701-17.701V166.576
			c0-18.155,9.766-35.122,25.487-44.277c0.165-0.096,0.313-0.213,0.467-0.327c0.042-0.031,0.087-0.056,0.127-0.089
			c1.693-1.32,2.52-3.578,1.427-5.452c-0.53-0.913-1.432-1.563-2.446-1.925c-18.487-9.759-29.965-28.75-29.965-49.639
			c0-30.944,25.176-56.122,56.123-56.122c30.946,0,56.122,25.176,56.122,56.122c0,20.983-11.578,40.058-30.212,49.778
			c-1.892,0.988-3.884,4.627-0.103,7.705c9.379,5.613,68.675,72.401,106.339,116.039l0.219,0.234
			C280.056,244.035,280.056,252.848,274.644,258.262z"/>
	</g>
</g>
</svg>